# xmcd CD database file
#
# Track frame offsets:
#	150
#	18318
#	37478
#	55673
#	72052
#	88583
#	107630
#	137458
#	156093
#	173804
#	187023
#	200276
#	216756
#	237862
#	261209
#	281845
#
# Disc length: 4234 seconds
#
# Revision: 0
# Processed by: cddbd v1.5.2PL0 Copyright (c) Steve Scherf et al.
# Submitted via: CDex 1.70beta2
#
DISCID=e3108810
DTITLE=Trijntje Oosterhuis - Who'll Speak for Love: Burt Bacharach Songbook II
DYEAR=2007
DGENRE=Jazz
TTITLE0=Any Day Now
TTITLE1=Love Is Still the Answer
TTITLE2=What the World Needs Now
TTITLE3=One Less Bell to Answer
TTITLE4=In Between the Heartaches
TTITLE5=This Girl's In Love
TTITLE6=God Give Me Strength
TTITLE7=Who'll Speak for Love
TTITLE8=Stronger Than Before
TTITLE9=I Just Don't Know What to Do With Myself
TTITLE10=Don't Go Breaking My Heart
TTITLE11=Don't Make Me Over
TTITLE12=Raindrops Keep Falling On My Head
TTITLE13=Painted from Memory
TTITLE14=On My Own
TTITLE15=Walk On By (Live)
EXTD=YEAR: 2007
EXTT0=
EXTT1=
EXTT2=
EXTT3=
EXTT4=
EXTT5=
EXTT6=
EXTT7=
EXTT8=
EXTT9=
EXTT10=
EXTT11=
EXTT12=
EXTT13=
EXTT14=
EXTT15=
PLAYORDER=
